<mxfile host="app.diagrams.net" modified="2022-03-22T15:36:01.232Z" agent="5.0 (X11; Linux x86_64) AppleWebKit/537.36 (KHTML, like Gecko) Chrome/99.0.4844.82 Safari/537.36" etag="77guRWkiHvF4ke58c7hE" version="17.1.3" type="github">
  <diagram id="C5RBs43oDa-KdzZeNtuy" name="Page-1">
    <mxGraphModel dx="1422" dy="756" grid="1" gridSize="10" guides="1" tooltips="1" connect="1" arrows="1" fold="1" page="1" pageScale="1" pageWidth="827" pageHeight="1169" math="0" shadow="0">
      <root>
        <mxCell id="WIyWlLk6GJQsqaUBKTNV-0" />
        <mxCell id="WIyWlLk6GJQsqaUBKTNV-1" parent="WIyWlLk6GJQsqaUBKTNV-0" />
        <mxCell id="s0EepXa069mjVDkJH46W-5" value="Klien" style="swimlane;fontStyle=1;align=center;verticalAlign=top;childLayout=stackLayout;horizontal=1;startSize=26;horizontalStack=0;resizeParent=1;resizeParentMax=0;resizeLast=0;collapsible=1;marginBottom=0;fontSize=14;" vertex="1" parent="WIyWlLk6GJQsqaUBKTNV-1">
          <mxGeometry x="120" y="470" width="200" height="180" as="geometry">
            <mxRectangle x="120" y="430" width="100" height="26" as="alternateBounds" />
          </mxGeometry>
        </mxCell>
        <mxCell id="s0EepXa069mjVDkJH46W-6" value="+ id: int&#xa;- nama: varchar&#xa;- alamat : varchar &#xa;- kontak : varchar" style="text;strokeColor=none;fillColor=none;align=left;verticalAlign=top;spacingLeft=4;spacingRight=4;overflow=hidden;rotatable=0;points=[[0,0.5],[1,0.5]];portConstraint=eastwest;fontSize=14;spacing=5;spacingTop=0;spacingBottom=0;" vertex="1" parent="s0EepXa069mjVDkJH46W-5">
          <mxGeometry y="26" width="200" height="94" as="geometry" />
        </mxCell>
        <mxCell id="s0EepXa069mjVDkJH46W-7" value="" style="line;strokeWidth=1;fillColor=none;align=left;verticalAlign=middle;spacingTop=-1;spacingLeft=3;spacingRight=3;rotatable=0;labelPosition=right;points=[];portConstraint=eastwest;" vertex="1" parent="s0EepXa069mjVDkJH46W-5">
          <mxGeometry y="120" width="200" height="8" as="geometry" />
        </mxCell>
        <mxCell id="s0EepXa069mjVDkJH46W-8" value="+ getter(): data&#xa;+ setter(data): void" style="text;strokeColor=none;fillColor=none;align=left;verticalAlign=top;spacingLeft=4;spacingRight=4;overflow=hidden;rotatable=0;points=[[0,0.5],[1,0.5]];portConstraint=eastwest;fontSize=14;fontStyle=0" vertex="1" parent="s0EepXa069mjVDkJH46W-5">
          <mxGeometry y="128" width="200" height="52" as="geometry" />
        </mxCell>
        <mxCell id="s0EepXa069mjVDkJH46W-9" value="Staff" style="swimlane;fontStyle=1;align=center;verticalAlign=top;childLayout=stackLayout;horizontal=1;startSize=26;horizontalStack=0;resizeParent=1;resizeParentMax=0;resizeLast=0;collapsible=1;marginBottom=0;fontSize=14;" vertex="1" parent="WIyWlLk6GJQsqaUBKTNV-1">
          <mxGeometry x="380" y="240" width="200" height="180" as="geometry">
            <mxRectangle x="460" y="340" width="100" height="26" as="alternateBounds" />
          </mxGeometry>
        </mxCell>
        <mxCell id="s0EepXa069mjVDkJH46W-10" value="+ id: int&#xa;+ id_posisi : int &#xa;- nama: varchar&#xa;- kontak : varchar" style="text;strokeColor=none;fillColor=none;align=left;verticalAlign=top;spacingLeft=4;spacingRight=4;overflow=hidden;rotatable=0;points=[[0,0.5],[1,0.5]];portConstraint=eastwest;fontSize=14;spacing=5;spacingTop=0;spacingBottom=0;" vertex="1" parent="s0EepXa069mjVDkJH46W-9">
          <mxGeometry y="26" width="200" height="94" as="geometry" />
        </mxCell>
        <mxCell id="s0EepXa069mjVDkJH46W-11" value="" style="line;strokeWidth=1;fillColor=none;align=left;verticalAlign=middle;spacingTop=-1;spacingLeft=3;spacingRight=3;rotatable=0;labelPosition=right;points=[];portConstraint=eastwest;" vertex="1" parent="s0EepXa069mjVDkJH46W-9">
          <mxGeometry y="120" width="200" height="8" as="geometry" />
        </mxCell>
        <mxCell id="s0EepXa069mjVDkJH46W-12" value="+ getter(): data&#xa;+ setter(data): void" style="text;strokeColor=none;fillColor=none;align=left;verticalAlign=top;spacingLeft=4;spacingRight=4;overflow=hidden;rotatable=0;points=[[0,0.5],[1,0.5]];portConstraint=eastwest;fontSize=14;fontStyle=0" vertex="1" parent="s0EepXa069mjVDkJH46W-9">
          <mxGeometry y="128" width="200" height="52" as="geometry" />
        </mxCell>
        <mxCell id="s0EepXa069mjVDkJH46W-13" value="Posisi Staff" style="swimlane;fontStyle=1;align=center;verticalAlign=top;childLayout=stackLayout;horizontal=1;startSize=26;horizontalStack=0;resizeParent=1;resizeParentMax=0;resizeLast=0;collapsible=1;marginBottom=0;fontSize=14;" vertex="1" parent="WIyWlLk6GJQsqaUBKTNV-1">
          <mxGeometry x="380" y="490" width="200" height="140" as="geometry">
            <mxRectangle x="440" y="30" width="100" height="26" as="alternateBounds" />
          </mxGeometry>
        </mxCell>
        <mxCell id="s0EepXa069mjVDkJH46W-14" value="+ id: int&#xa;- nama_posisi: varchar" style="text;strokeColor=none;fillColor=none;align=left;verticalAlign=top;spacingLeft=4;spacingRight=4;overflow=hidden;rotatable=0;points=[[0,0.5],[1,0.5]];portConstraint=eastwest;fontSize=14;spacing=5;spacingTop=0;spacingBottom=0;" vertex="1" parent="s0EepXa069mjVDkJH46W-13">
          <mxGeometry y="26" width="200" height="54" as="geometry" />
        </mxCell>
        <mxCell id="s0EepXa069mjVDkJH46W-15" value="" style="line;strokeWidth=1;fillColor=none;align=left;verticalAlign=middle;spacingTop=-1;spacingLeft=3;spacingRight=3;rotatable=0;labelPosition=right;points=[];portConstraint=eastwest;" vertex="1" parent="s0EepXa069mjVDkJH46W-13">
          <mxGeometry y="80" width="200" height="8" as="geometry" />
        </mxCell>
        <mxCell id="s0EepXa069mjVDkJH46W-16" value="+ getter(): data&#xa;+ setter(data): void" style="text;strokeColor=none;fillColor=none;align=left;verticalAlign=top;spacingLeft=4;spacingRight=4;overflow=hidden;rotatable=0;points=[[0,0.5],[1,0.5]];portConstraint=eastwest;fontSize=14;fontStyle=0" vertex="1" parent="s0EepXa069mjVDkJH46W-13">
          <mxGeometry y="88" width="200" height="52" as="geometry" />
        </mxCell>
        <mxCell id="s0EepXa069mjVDkJH46W-18" value="" style="endArrow=classic;html=1;rounded=0;fontSize=14;endFill=1;" edge="1" parent="WIyWlLk6GJQsqaUBKTNV-1" source="s0EepXa069mjVDkJH46W-13" target="s0EepXa069mjVDkJH46W-9">
          <mxGeometry width="50" height="50" relative="1" as="geometry">
            <mxPoint x="570" y="170" as="sourcePoint" />
            <mxPoint x="500" y="290" as="targetPoint" />
          </mxGeometry>
        </mxCell>
        <mxCell id="s0EepXa069mjVDkJH46W-20" value="Iklan" style="swimlane;fontStyle=1;align=center;verticalAlign=top;childLayout=stackLayout;horizontal=1;startSize=26;horizontalStack=0;resizeParent=1;resizeParentMax=0;resizeLast=0;collapsible=1;marginBottom=0;fontSize=14;" vertex="1" parent="WIyWlLk6GJQsqaUBKTNV-1">
          <mxGeometry x="120" y="210" width="200" height="236" as="geometry">
            <mxRectangle x="460" y="340" width="100" height="26" as="alternateBounds" />
          </mxGeometry>
        </mxCell>
        <mxCell id="s0EepXa069mjVDkJH46W-21" value="+ id: int&#xa;+ id_klien : int&#xa;- judul: varchar&#xa;- tanggal_mulai : date &#xa;- tanggal_selesai : date&#xa;- biaya_estimasi : double&#xa;- biaya_riil : double&#xa;- tanggal_bayar : date" style="text;strokeColor=none;fillColor=none;align=left;verticalAlign=top;spacingLeft=4;spacingRight=4;overflow=hidden;rotatable=0;points=[[0,0.5],[1,0.5]];portConstraint=eastwest;fontSize=14;spacing=5;spacingTop=0;spacingBottom=0;" vertex="1" parent="s0EepXa069mjVDkJH46W-20">
          <mxGeometry y="26" width="200" height="150" as="geometry" />
        </mxCell>
        <mxCell id="s0EepXa069mjVDkJH46W-22" value="" style="line;strokeWidth=1;fillColor=none;align=left;verticalAlign=middle;spacingTop=-1;spacingLeft=3;spacingRight=3;rotatable=0;labelPosition=right;points=[];portConstraint=eastwest;" vertex="1" parent="s0EepXa069mjVDkJH46W-20">
          <mxGeometry y="176" width="200" height="8" as="geometry" />
        </mxCell>
        <mxCell id="s0EepXa069mjVDkJH46W-23" value="+ getter(): data&#xa;+ setter(data): void" style="text;strokeColor=none;fillColor=none;align=left;verticalAlign=top;spacingLeft=4;spacingRight=4;overflow=hidden;rotatable=0;points=[[0,0.5],[1,0.5]];portConstraint=eastwest;fontSize=14;fontStyle=0" vertex="1" parent="s0EepXa069mjVDkJH46W-20">
          <mxGeometry y="184" width="200" height="52" as="geometry" />
        </mxCell>
        <mxCell id="s0EepXa069mjVDkJH46W-24" value="" style="endArrow=none;html=1;rounded=0;fontSize=14;endFill=0;" edge="1" parent="WIyWlLk6GJQsqaUBKTNV-1" source="s0EepXa069mjVDkJH46W-5" target="s0EepXa069mjVDkJH46W-20">
          <mxGeometry width="50" height="50" relative="1" as="geometry">
            <mxPoint x="510" y="460" as="sourcePoint" />
            <mxPoint x="560" y="410" as="targetPoint" />
          </mxGeometry>
        </mxCell>
        <mxCell id="s0EepXa069mjVDkJH46W-25" value="" style="endArrow=none;html=1;rounded=0;fontSize=14;endFill=0;" edge="1" parent="WIyWlLk6GJQsqaUBKTNV-1" source="s0EepXa069mjVDkJH46W-9" target="s0EepXa069mjVDkJH46W-20">
          <mxGeometry width="50" height="50" relative="1" as="geometry">
            <mxPoint x="230" y="490" as="sourcePoint" />
            <mxPoint x="230" y="450" as="targetPoint" />
          </mxGeometry>
        </mxCell>
      </root>
    </mxGraphModel>
  </diagram>
</mxfile>
